:FULLY-SPECIFIED
:FORCE-ALL-JOINTS-BE-3DOF
:DEGREES
1019
root 1.14696 15.1605 32.4371 4.83692 -3.36326 363.569
lfemur 8.39258 0.39894 5.73687
ltibia -3.70448e-15 0 0
lfoot -30.1336 -10.9848 0
ltoes -34.4263 0 0
rfemur -31.5169 -15.9666 -6.03104
rtibia 50.1724 0 0
rfoot -22.4292 4.58802 0
rtoes -42.7455 0 0
lowerback -1.4233 -0.170362 0.314652
upperback -0.504158 -0.214662 -5.91728
thorax 0.256027 -0.113745 -6.31638
lowerneck -7.2232 0.910993 6.20581
upperneck 1.60461 0.53236 3.44281
head 1.73936 0.398292 0.0510053
lclavicle -9.30057e-15 1.98483e-14 0
lhumerus -58.5746 -46.3768 115.191
lradius 55.7419 0 0
lwrist 25.3044 0 0
lhand 37.2363 24.8869 0
lfingers 7.12502 0 0
lthumb 60.0674 38.5964 0
rclavicle -9.30057e-15 1.98483e-14 0
rhumerus 2.76607 -23.8396 0.285166
rradius 27.6862 0 0
rwrist -10.2905 0 0
rhand -30.7281 -42.932 0
rfingers 7.12502 0 0
rthumb -4.02057 -792.874 0
1020
root 1.14706 15.1603 32.4395 4.83987 -3.36333 363.555
lfemur 8.40116 0.400737 5.75141
ltibia 1.95189e-15 0 0
lfoot -30.1373 -10.9793 0
ltoes -34.4365 0 0
rfemur -31.5179 -15.9551 -6.02051
rtibia 50.1827 0 0
rfoot -22.399 4.62753 0
rtoes -42.672 0 0
lowerback -1.43234 -0.161285 0.294766
upperback -0.510572 -0.202241 -5.924
thorax 0.255932 -0.107582 -6.3119
lowerneck -7.22557 0.906388 6.2317
upperneck 1.62976 0.522107 3.45291
head 1.748 0.394533 0.0495147
lclavicle -1.02108e-14 7.1539e-15 0
lhumerus -58.6003 -46.4036 115.215
lradius 55.7553 0 0
lwrist 25.2995 0 0
lhand 37.2363 24.9176 0
lfingers 7.12502 0 0
lthumb 60.0674 38.627 0
rclavicle -1.02108e-14 7.1539e-15 0
rhumerus 2.75561 -23.8349 0.282961
rradius 27.6799 0 0
rwrist -10.2617 0 0
rhand -30.7231 -42.8746 0
rfingers 7.12502 0 0
rthumb -4.01576 -792.817 0
1021
root 1.14726 15.1602 32.4419 4.84283 -3.36611 363.542
lfemur 8.41149 0.404941 5.76439
ltibia 6.68099e-15 0 0
lfoot -30.1412 -10.9755 0
ltoes -34.4445 0 0
rfemur -31.5197 -15.9442 -6.01111
rtibia 50.1924 0 0
rfoot -22.3688 4.6721 0
rtoes -42.5938 0 0
lowerback -1.44168 -0.152076 0.274435
upperback -0.517016 -0.189625 -5.93102
thorax 0.255999 -0.101322 -6.30749
lowerneck -7.22638 0.90227 6.2572
upperneck 1.65325 0.512692 3.46468
head 1.75581 0.391154 0.0486443
lclavicle -1.07347e-14 -4.65496e-15 0
lhumerus -58.6259 -46.4319 115.242
lradius 55.7663 0 0
lwrist 25.2936 0 0
lhand 37.2369 24.9469 0
lfingers 7.12502 0 0
lthumb 60.0679 38.6557 0
rclavicle -1.07347e-14 -4.65496e-15 0
rhumerus 2.74634 -23.8312 0.278938
rradius 27.6721 0 0
rwrist -10.2333 0 0
rhand -30.7179 -42.8203 0
rfingers 7.12502 0 0
rthumb -4.01072 -792.763 0
1022
root 1.14765 15.1601 32.4445 4.84488 -3.37019 363.531
lfemur 8.42361 0.409847 5.77496
ltibia 9.92644e-15 0 0
lfoot -30.1452 -10.974 0
ltoes -34.4497 0 0
rfemur -31.5204 -15.9371 -6.00437
rtibia 50.2007 0 0
rfoot -22.3394 4.72365 0
rtoes -42.5118 0 0
lowerback -1.45173 -0.143112 0.254145
upperback -0.522199 -0.177245 -5.93861
thorax 0.257733 -0.0951367 -6.30371
lowerneck -7.22493 0.898417 6.28148
upperneck 1.67204 0.504137 3.47718
head 1.76167 0.388025 0.0482249
lclavicle -1.06515e-14 -1.35475e-14 0
lhumerus -58.6479 -46.4602 115.265
lradius 55.7742 0 0
lwrist 25.2882 0 0
lhand 37.2395 24.9737 0
lfingers 7.12502 0 0
lthumb 60.0701 38.6803 0
rclavicle -1.06515e-14 -1.35475e-14 0
rhumerus 2.73755 -23.8282 0.274762
rradius 27.662 0 0
rwrist -10.2039 0 0
rhand -30.7111 -42.7722 0
rfingers 7.12502 0 0
rthumb -4.00417 -792.715 0
1023
root 1.14832 15.1599 32.4472 4.84514 -3.37411 363.522
lfemur 8.43757 0.413753 5.78224
ltibia 1.11319e-14 0 0
lfoot -30.1494 -10.9756 0
ltoes -34.4515 0 0
rfemur -31.5177 -15.9368 -6.00177
rtibia 50.2068 0 0
rfoot -22.3119 4.78409 0
rtoes -42.4268 0 0
lowerback -1.4629 -0.134767 0.234384
upperback -0.524829 -0.165532 -5.94701
thorax 0.262641 -0.0892001 -6.30112
lowerneck -7.22052 0.894607 6.30376
upperneck 1.68308 0.496466 3.48946
head 1.76447 0.385014 0.0480874
lclavicle -9.74045e-15 -1.74931e-14 0
lhumerus -58.6625 -46.4871 115.282
lradius 55.7781 0 0
lwrist 25.2854 0 0
lhand 37.2456 24.9973 0
lfingers 7.12502 0 0
lthumb 60.0753 38.6983 0
rclavicle -9.74045e-15 -1.74931e-14 0
rhumerus 2.72856 -23.8255 0.272099
rradius 27.6485 0 0
rwrist -10.1722 0 0
rhand -30.7015 -42.7332 0
rfingers 7.12502 0 0
rthumb -3.99486 -792.676 0
1024
root 1.14923 15.1597 32.4501 4.84319 -3.37992 363.516
lfemur 8.45521 0.418292 5.78602
ltibia 9.35617e-15 0 0
lfoot -30.1534 -10.9805 0
ltoes -34.4496 0 0
rfemur -31.5123 -15.9421 -6.00328
rtibia 50.2108 0 0
rfoot -22.2855 4.85629 0
rtoes -42.3349 0 0
lowerback -1.47538 -0.126468 0.214737
upperback -0.525051 -0.153713 -5.95691
thorax 0.270765 -0.0831252 -6.3002
lowerneck -7.21232 0.891042 6.32468
upperneck 1.68726 0.489829 3.50378
head 1.76433 0.38228 0.0488402
lclavicle -7.56135e-15 -1.52213e-14 0
lhumerus -58.6693 -46.5138 115.293
lradius 55.7758 0 0
lwrist 25.2818 0 0
lhand 37.2564 25.0175 0
lfingers 7.12502 0 0
lthumb 60.0845 38.7088 0
rclavicle -7.56135e-15 -1.52213e-14 0
rhumerus 2.71983 -23.8231 0.268629
rradius 27.63 0 0
rwrist -10.137 0 0
rhand -30.6877 -42.705 0
rfingers 7.12502 0 0
rthumb -3.98156 -792.648 0
1025
root 1.1503 15.1596 32.4532 4.83969 -3.38959 363.511
lfemur 8.47709 0.425522 5.78699
ltibia 4.78007e-15 0 0
lfoot -30.157 -10.9882 0
ltoes -34.4446 0 0
rfemur -31.5063 -15.9497 -6.00754
rtibia 50.2133 0 0
rfoot -22.2589 4.93948 0
rtoes -42.234 0 0
lowerback -1.48887 -0.117691 0.194633
upperback -0.524063 -0.141146 -5.96833
thorax 0.28078 -0.0766292 -6.30062
lowerneck -7.20069 0.887986 6.34519
upperneck 1.68756 0.484256 3.52174
head 1.7623 0.379994 0.0508364
lclavicle -4.16375e-15 -8.11372e-15 0
lhumerus -58.6716 -46.542 115.304
lradius 55.7672 0 0
lwrist 25.2746 0 0
lhand 37.2707 25.035 0
lfingers 7.12502 0 0
lthumb 60.0968 38.7133 0
rclavicle -4.16375e-15 -8.11372e-15 0
rhumerus 2.71213 -23.8212 0.2621
rradius 27.6067 0 0
rwrist -10.0993 0 0
rhand -30.6705 -42.6854 0
rfingers 7.12502 0 0
rthumb -3.96498 -792.629 0
1026
root 1.15154 15.1595 32.4564 4.83536 -3.40154 363.508
lfemur 8.50137 0.434378 5.78567
ltibia -1.46976e-15 0 0
lfoot -30.1606 -10.9982 0
ltoes -34.4369 0 0
rfemur -31.4997 -15.96 -6.01411
rtibia 50.2146 0 0
rfoot -22.2328 5.03017 0
rtoes -42.1278 0 0
lowerback -1.50305 -0.108883 0.174325
upperback -0.522149 -0.128462 -5.98049
thorax 0.292144 -0.0700413 -6.30171
lowerneck -7.18667 0.885312 6.36489
upperneck 1.68414 0.479589 3.54139
head 1.75862 0.37804 0.0535241
lclavicle -6.14275e-17 1.88231e-15 0
lhumerus -58.671 -46.5709 115.313
lradius 55.7549 0 0
lwrist 25.2665 0 0
lhand 37.2871 25.0504 0
lfingers 7.12502 0 0
lthumb 60.1107 38.7138 0
rclavicle -6.14275e-17 1.88231e-15 0
rhumerus 2.70523 -23.82 0.254276
rradius 27.5806 0 0
rwrist -10.0606 0 0
rhand -30.6517 -42.6719 0
rfingers 7.12502 0 0
rthumb -3.94678 -792.615 0
1027
root 1.15293 15.1593 32.4598 4.83091 -3.41421 363.507
lfemur 8.52619 0.443794 5.78255
ltibia -8.26667e-15 0 0
lfoot -30.1647 -11.0099 0
ltoes -34.4268 0 0
rfemur -31.4926 -15.9732 -6.02251
rtibia 50.2149 0 0
rfoot -22.2075 5.12488 0
rtoes -42.02 0 0
lowerback -1.51759 -0.100492 0.154063
upperback -0.519595 -0.116289 -5.9926
thorax 0.304309 -0.0636908 -6.30279
lowerneck -7.17134 0.882892 6.38339
upperneck 1.67712 0.475669 3.56079
head 1.75352 0.376302 0.0563512
lclavicle 4.23186e-15 1.28195e-14 0
lhumerus -58.6689 -46.5999 115.321
lradius 55.7414 0 0
lwrist 25.2604 0 0
lhand 37.3039 25.0639 0
lfingers 7.12502 0 0
lthumb 60.1251 38.7122 0
rclavicle 4.23186e-15 1.28195e-14 0
rhumerus 2.69889 -23.8197 0.246919
rradius 27.5537 0 0
rwrist -10.0224 0 0
rhand -30.6328 -42.6617 0
rfingers 7.12502 0 0
rthumb -3.9286 -792.605 0
1028
root 1.15449 15.1592 32.4631 4.82705 -3.42605 363.506
lfemur 8.54971 0.452705 5.77814
ltibia -1.4484e-14 0 0
lfoot -30.1695 -11.0229 0
ltoes -34.4149 0 0
rfemur -31.4853 -15.9896 -6.0323
rtibia 50.2145 0 0
rfoot -22.1837 5.22009 0
rtoes -41.914 0 0
lowerback -1.53217 -0.0929672 0.1341
upperback -0.516686 -0.105259 -6.0039
thorax 0.316733 -0.0579069 -6.3032
lowerneck -7.15575 0.880599 6.4003
upperneck 1.66664 0.472338 3.57799
head 1.74726 0.374664 0.0587656
lclavicle 8.20234e-15 2.27506e-14 0
lhumerus -58.667 -46.6283 115.328
lradius 55.7292 0 0
lwrist 25.2588 0 0
lhand 37.3196 25.0761 0
lfingers 7.12502 0 0
lthumb 60.1385 38.7101 0
rclavicle 8.20234e-15 2.27506e-14 0
rhumerus 2.69288 -23.8204 0.241794
rradius 27.5281 0 0
rwrist -9.98636 0 0
rhand -30.6157 -42.6522 0
rfingers 7.12502 0 0
rthumb -3.91209 -792.596 0
